# xmcd
#
# Track frame offsets:
#	150
#	16930
#	31939
#	33727
#	51270
#	70140
#	89989
#	90680
#	103567
#	107476
#	120873
#	135561
#	137359
#	152451
#	166653
#	186712
#	189428
#	210907
#	225884
#	245027
#	245903
#
# Disc length: 3355 seconds
#
# Revision: 1
# Processed by: cddbd v1.5.2PL0 Copyright (c) Steve Scherf et al.
# Submitted via: audiograbber 1.83.01
#
DISCID=130d1915
DTITLE=The Hot Nut Riveters - The Hot Nut Riveters
DYEAR=2015
DGENRE=Blues
TTITLE0=Leadfoot Larry
TTITLE1=Southern Hospitality
TTITLE2=Rock A Buy Your Baby
TTITLE3=Your Feet's Too Big
TTITLE4=Ella Tiene un Bigote
TTITLE5=Holy Ground
TTITLE6=Hot Dog
TTITLE7=Long Way Home
TTITLE8=I´m Too Old For This Crap
TTITLE9=It´s a Sin To Tell A Lie
TTITLE10=I Don´t Like Work
TTITLE11=Take A Break
TTITLE12=In My Dreams
TTITLE13=Tradewinds
TTITLE14=New Orleans
TTITLE15=True Romance
TTITLE16=Blues in the Bottle
TTITLE17=Devil´s Slide
TTITLE18=Nothing From Nothing
TTITLE19=The Rest Is Silence
TTITLE20=Compassion
EXTD=
EXTT0=
EXTT1=
EXTT2=
EXTT3=
EXTT4=
EXTT5=
EXTT6=
EXTT7=
EXTT8=
EXTT9=
EXTT10=
EXTT11=
EXTT12=
EXTT13=
EXTT14=
EXTT15=
EXTT16=
EXTT17=
EXTT18=
EXTT19=
EXTT20=
PLAYORDER=
